<svg xmlns="http://www.w3.org/2000/svg" xmlns:xlink="http://www.w3.org/1999/xlink" width="64" zoomAndPan="magnify" viewBox="0 0 48 48" height="64" preserveAspectRatio="xMidYMid meet" version="1.0"><defs><clipPath id="6521ad01fb"><path d="M 0.488281 0 L 47.507812 0 L 47.507812 47.019531 L 0.488281 47.019531 Z M 0.488281 0 " clip-rule="nonzero"/></clipPath><clipPath id="65db649dbe"><path d="M 13 5.425781 L 16 5.425781 L 16 12 L 13 12 Z M 13 5.425781 " clip-rule="nonzero"/></clipPath><clipPath id="e438dbeed6"><path d="M 3.179688 15 L 9 15 L 9 18 L 3.179688 18 Z M 3.179688 15 " clip-rule="nonzero"/></clipPath><clipPath id="95e8faf697"><path d="M 10 13 L 45 13 L 45 41.425781 L 10 41.425781 Z M 10 13 " clip-rule="nonzero"/></clipPath></defs><g clip-path="url(#6521ad01fb)"><path fill="#ffffff" d="M 0.488281 0 L 47.511719 0 L 47.511719 47.019531 L 0.488281 47.019531 Z M 0.488281 0 " fill-opacity="1" fill-rule="nonzero"/><path fill="#ffffff" d="M 0.488281 0 L 47.511719 0 L 47.511719 47.019531 L 0.488281 47.019531 Z M 0.488281 0 " fill-opacity="1" fill-rule="nonzero"/></g><g clip-path="url(#65db649dbe)"><path fill="#ebebeb" d="M 13.78125 5.726562 C 13.59375 5.914062 13.5 6.140625 13.5 6.40625 L 13.5 10.5625 C 13.5 10.824219 13.59375 11.050781 13.78125 11.242188 C 13.96875 11.425781 14.195312 11.519531 14.460938 11.519531 C 14.726562 11.519531 14.953125 11.425781 15.136719 11.242188 C 15.324219 11.050781 15.417969 10.824219 15.417969 10.5625 L 15.417969 6.40625 C 15.417969 6.140625 15.324219 5.914062 15.136719 5.726562 C 14.953125 5.542969 14.726562 5.449219 14.460938 5.449219 C 14.195312 5.449219 13.96875 5.542969 13.78125 5.726562 Z M 13.78125 5.726562 " fill-opacity="1" fill-rule="nonzero"/></g><path fill="#ebebeb" d="M 9.085938 20.785156 C 8.820312 20.769531 8.589844 20.847656 8.390625 21.023438 L 5.511719 23.582031 C 5.316406 23.757812 5.210938 23.980469 5.195312 24.242188 C 5.179688 24.507812 5.257812 24.738281 5.433594 24.9375 C 5.609375 25.136719 5.832031 25.242188 6.097656 25.257812 C 6.359375 25.273438 6.59375 25.195312 6.792969 25.019531 L 9.667969 22.460938 C 9.863281 22.285156 9.972656 22.0625 9.988281 21.800781 C 10.003906 21.535156 9.921875 21.304688 9.746094 21.105469 C 9.570312 20.90625 9.347656 20.800781 9.085938 20.785156 Z M 9.085938 20.785156 " fill-opacity="1" fill-rule="nonzero"/><g clip-path="url(#e438dbeed6)"><path fill="#ebebeb" d="M 8.429688 17.3125 C 8.617188 17.125 8.707031 16.898438 8.707031 16.632812 C 8.707031 16.367188 8.617188 16.140625 8.429688 15.953125 C 8.242188 15.765625 8.015625 15.671875 7.75 15.671875 L 4.234375 15.671875 C 3.96875 15.671875 3.746094 15.765625 3.554688 15.953125 C 3.371094 16.140625 3.277344 16.367188 3.277344 16.632812 C 3.277344 16.898438 3.371094 17.125 3.554688 17.3125 C 3.746094 17.496094 3.96875 17.589844 4.234375 17.589844 L 7.75 17.589844 C 8.015625 17.589844 8.242188 17.496094 8.429688 17.3125 Z M 8.429688 17.3125 " fill-opacity="1" fill-rule="nonzero"/></g><path fill="#ebebeb" d="M 7.589844 7.46875 C 7.445312 7.25 7.242188 7.113281 6.984375 7.0625 C 6.726562 7.011719 6.484375 7.058594 6.265625 7.207031 C 6.042969 7.351562 5.902344 7.554688 5.847656 7.8125 C 5.796875 8.074219 5.84375 8.316406 5.992188 8.539062 L 8.550781 12.375 C 8.695312 12.59375 8.898438 12.730469 9.15625 12.78125 C 9.414062 12.832031 9.652344 12.785156 9.875 12.636719 C 10.097656 12.492188 10.234375 12.289062 10.289062 12.03125 C 10.339844 11.769531 10.292969 11.527344 10.144531 11.304688 Z M 7.589844 7.46875 " fill-opacity="1" fill-rule="nonzero"/><g clip-path="url(#95e8faf697)"><path fill="#ebebeb" d="M 42.894531 27.847656 C 42.070312 26.957031 41.402344 26.375 40.882812 26.105469 C 40.710938 26.007812 40.542969 25.9375 40.386719 25.890625 C 40.363281 25.605469 40.328125 25.316406 40.285156 25.027344 C 40.214844 24.527344 40.058594 23.898438 39.8125 23.140625 C 39.242188 21.367188 38.566406 19.878906 37.792969 18.667969 L 37.785156 18.660156 C 37.34375 17.984375 36.867188 17.390625 36.355469 16.878906 C 36.199219 16.722656 36.039062 16.570312 35.882812 16.421875 L 35.882812 16.433594 C 34.480469 15.109375 33.128906 14.21875 31.824219 13.761719 C 29.726562 13.027344 27.949219 13.394531 26.5 14.867188 C 26.382812 14.972656 26.273438 15.105469 26.171875 15.265625 C 26.09375 15.261719 26.019531 15.261719 25.945312 15.265625 C 24.90625 15.273438 24.066406 15.613281 23.429688 16.289062 C 23.167969 16.53125 22.925781 16.933594 22.703125 17.496094 L 22.71875 17.46875 C 22.605469 17.6875 22.542969 17.910156 22.535156 18.132812 C 21.828125 18.296875 21.257812 18.609375 20.824219 19.066406 C 20.695312 19.199219 20.570312 19.347656 20.457031 19.515625 C 20.070312 19.191406 19.707031 18.855469 19.371094 18.5 C 19.367188 18.492188 19.363281 18.484375 19.355469 18.476562 C 18.824219 17.945312 18.34375 17.375 17.917969 16.773438 C 16.015625 14.015625 14.195312 13.152344 12.457031 14.179688 C 10.671875 15.0625 10.074219 16.550781 10.660156 18.644531 C 11.128906 20.394531 12.179688 22.023438 13.804688 23.53125 L 13.804688 23.523438 C 15.316406 24.949219 17.050781 26.222656 19.011719 27.351562 L 19.023438 27.351562 C 20.265625 28.058594 21.300781 28.742188 22.128906 29.394531 C 19.832031 28.953125 17.75 29.03125 15.882812 29.632812 C 13.675781 30.328125 12.714844 31.769531 12.992188 33.964844 C 13 34.042969 13.007812 34.128906 13.023438 34.210938 L 13.015625 34.203125 C 13.210938 35.484375 13.816406 36.328125 14.828125 36.742188 C 15.660156 37.144531 16.832031 37.167969 18.335938 36.816406 L 18.34375 36.816406 C 20.574219 36.289062 22.769531 36.601562 24.925781 37.75 L 24.917969 37.75 C 27.050781 38.894531 29.179688 39.347656 31.308594 39.105469 C 32.140625 40.246094 33.289062 40.941406 34.742188 41.199219 C 34.753906 41.203125 34.761719 41.207031 34.773438 41.207031 C 36.640625 41.59375 38.914062 39.957031 41.59375 36.304688 L 41.59375 36.296875 C 44.328125 32.527344 44.765625 29.714844 42.90625 27.851562 Z M 40.042969 35.179688 L 40.042969 35.171875 C 37.972656 37.996094 36.308594 39.375 35.042969 39.308594 L 35.074219 39.316406 C 34.355469 39.1875 33.75 38.894531 33.261719 38.429688 C 34.707031 37.652344 35.855469 36.601562 36.707031 35.28125 C 36.847656 35.058594 36.890625 34.820312 36.832031 34.5625 C 36.777344 34.304688 36.640625 34.101562 36.417969 33.957031 C 36.195312 33.8125 35.957031 33.769531 35.699219 33.828125 C 35.441406 33.882812 35.238281 34.023438 35.09375 34.246094 C 34.25 35.535156 33.054688 36.5 31.507812 37.144531 C 29.617188 37.441406 27.722656 37.078125 25.828125 36.058594 L 25.820312 36.058594 C 23.226562 34.675781 20.585938 34.304688 17.902344 34.949219 C 16.914062 35.179688 16.144531 35.191406 15.59375 34.988281 C 15.230469 34.800781 15.007812 34.460938 14.921875 33.964844 C 14.921875 33.949219 14.917969 33.933594 14.914062 33.917969 L 14.90625 33.910156 C 14.710938 32.660156 15.230469 31.84375 16.457031 31.457031 C 18.0625 30.957031 19.855469 30.902344 21.832031 31.296875 C 23.203125 31.5625 24.074219 31.578125 24.453125 31.34375 C 25.125 31.046875 25.351562 30.550781 25.125 29.859375 C 25.066406 29.597656 24.839844 29.273438 24.445312 28.890625 L 24.4375 28.882812 C 23.425781 27.878906 21.933594 26.8125 19.964844 25.6875 L 19.972656 25.6875 C 18.140625 24.644531 16.523438 23.457031 15.113281 22.132812 L 15.113281 22.125 C 13.78125 20.886719 12.914062 19.558594 12.511719 18.132812 C 12.222656 17.09375 12.496094 16.34375 13.332031 15.886719 C 14.207031 15.5625 15.207031 16.21875 16.335938 17.859375 L 16.34375 17.867188 C 16.835938 18.5625 17.386719 19.21875 18 19.832031 L 17.984375 19.808594 C 18.734375 20.609375 19.609375 21.335938 20.609375 21.996094 C 20.625 22.007812 20.640625 22.015625 20.660156 22.023438 C 21.449219 22.558594 22.441406 23.183594 23.640625 23.890625 C 23.867188 24.027344 24.109375 24.0625 24.367188 23.996094 C 24.621094 23.929688 24.8125 23.785156 24.949219 23.554688 C 25.082031 23.328125 25.117188 23.085938 25.050781 22.828125 C 24.988281 22.574219 24.839844 22.378906 24.613281 22.246094 C 23.597656 21.644531 22.734375 21.109375 22.015625 20.640625 C 22.066406 20.558594 22.125 20.484375 22.183594 20.425781 C 22.558594 20.09375 23.097656 19.925781 23.804688 19.921875 C 24.316406 19.988281 25.03125 20.28125 25.949219 20.808594 C 26.371094 21.046875 26.839844 21.335938 27.351562 21.679688 C 27.574219 21.824219 27.8125 21.875 28.070312 21.820312 C 28.332031 21.769531 28.53125 21.628906 28.679688 21.40625 C 28.828125 21.1875 28.875 20.945312 28.824219 20.6875 C 28.769531 20.429688 28.628906 20.226562 28.40625 20.082031 C 27.472656 19.460938 26.652344 18.980469 25.949219 18.632812 C 25.410156 18.375 24.9375 18.191406 24.535156 18.089844 C 24.617188 17.894531 24.703125 17.746094 24.789062 17.644531 C 25.09375 17.371094 25.480469 17.222656 25.949219 17.195312 C 26.183594 17.179688 26.4375 17.195312 26.714844 17.246094 L 26.722656 17.246094 C 26.730469 17.25 26.738281 17.25 26.746094 17.253906 L 26.753906 17.253906 C 26.761719 17.257812 26.769531 17.257812 26.78125 17.261719 C 27.507812 17.441406 28.625 18.085938 30.125 19.195312 C 30.339844 19.351562 30.578125 19.410156 30.835938 19.371094 C 31.097656 19.328125 31.304688 19.203125 31.460938 18.988281 C 31.621094 18.773438 31.679688 18.539062 31.644531 18.277344 C 31.601562 18.015625 31.472656 17.804688 31.261719 17.644531 C 30.109375 16.800781 29.144531 16.191406 28.359375 15.816406 C 29.167969 15.273438 30.109375 15.191406 31.1875 15.570312 C 32.269531 15.964844 33.398438 16.714844 34.574219 17.820312 L 34.574219 17.828125 C 34.714844 17.960938 34.855469 18.097656 34.996094 18.238281 C 35.421875 18.660156 35.820312 19.152344 36.1875 19.714844 L 36.179688 19.707031 C 36.875 20.796875 37.480469 22.136719 37.992188 23.730469 C 38.195312 24.359375 38.324219 24.882812 38.386719 25.296875 L 38.386719 25.304688 C 38.472656 25.890625 38.523438 26.453125 38.535156 27 C 38.535156 27.011719 38.535156 27.019531 38.535156 27.03125 C 38.535156 27.960938 38.433594 28.839844 38.226562 29.667969 C 38.222656 29.675781 38.21875 29.6875 38.21875 29.699219 C 38.164062 29.882812 38.117188 30.0625 38.074219 30.234375 C 38.007812 30.488281 38.042969 30.726562 38.175781 30.953125 C 38.3125 31.179688 38.511719 31.328125 38.769531 31.394531 C 39.023438 31.457031 39.261719 31.425781 39.488281 31.289062 C 39.714844 31.152344 39.859375 30.953125 39.925781 30.699219 C 39.96875 30.539062 40.011719 30.378906 40.0625 30.210938 C 40.066406 30.199219 40.066406 30.1875 40.070312 30.179688 C 40.238281 29.515625 40.355469 28.828125 40.414062 28.109375 C 40.71875 28.359375 41.074219 28.707031 41.484375 29.148438 L 41.492188 29.15625 C 42.5 30.445312 42.019531 32.453125 40.042969 35.179688 Z M 40.042969 35.179688 " fill-opacity="1" fill-rule="nonzero"/></g><path fill="#ebebeb" d="M 19.570312 13.515625 L 22.449219 10.960938 C 22.644531 10.78125 22.75 10.5625 22.765625 10.296875 C 22.78125 10.03125 22.703125 9.800781 22.527344 9.601562 C 22.351562 9.402344 22.128906 9.296875 21.863281 9.28125 C 21.601562 9.265625 21.367188 9.347656 21.171875 9.523438 L 18.292969 12.078125 C 18.097656 12.253906 17.988281 12.476562 17.976562 12.742188 C 17.957031 13.003906 18.039062 13.238281 18.214844 13.4375 C 18.390625 13.632812 18.613281 13.738281 18.878906 13.753906 C 19.140625 13.773438 19.371094 13.691406 19.570312 13.515625 Z M 19.570312 13.515625 " fill-opacity="1" fill-rule="nonzero"/></svg>