<svg xmlns="http://www.w3.org/2000/svg" xmlns:xlink="http://www.w3.org/1999/xlink" width="64" zoomAndPan="magnify" viewBox="0 0 48 48" height="64" preserveAspectRatio="xMidYMid meet" version="1.0"><defs><clipPath id="09d4a0db65"><path d="M 0.488281 0 L 47.507812 0 L 47.507812 47.019531 L 0.488281 47.019531 Z M 0.488281 0 " clip-rule="nonzero"/></clipPath><clipPath id="6dc2495eba"><path d="M 3 4 L 45.726562 4 L 45.726562 43 L 3 43 Z M 3 4 " clip-rule="nonzero"/></clipPath></defs><g clip-path="url(#09d4a0db65)"><path fill="#ffffff" d="M 0.488281 0 L 47.511719 0 L 47.511719 47.019531 L 0.488281 47.019531 Z M 0.488281 0 " fill-opacity="1" fill-rule="nonzero"/><path fill="#ffffff" d="M 0.488281 0 L 47.511719 0 L 47.511719 47.019531 L 0.488281 47.019531 Z M 0.488281 0 " fill-opacity="1" fill-rule="nonzero"/></g><path fill="#41483c" d="M 19.3125 22.828125 L 21.066406 22.828125 L 21.066406 24.582031 L 19.3125 24.582031 Z M 19.3125 22.828125 " fill-opacity="1" fill-rule="nonzero"/><path fill="#41483c" d="M 21.945312 22.828125 L 23.695312 22.828125 L 23.695312 24.582031 L 21.945312 24.582031 Z M 21.945312 22.828125 " fill-opacity="1" fill-rule="nonzero"/><path fill="#41483c" d="M 24.574219 22.828125 L 26.328125 22.828125 L 26.328125 24.582031 L 24.574219 24.582031 Z M 24.574219 22.828125 " fill-opacity="1" fill-rule="nonzero"/><path fill="#41483c" d="M 27.203125 22.828125 L 28.957031 22.828125 L 28.957031 24.582031 L 27.203125 24.582031 Z M 27.203125 22.828125 " fill-opacity="1" fill-rule="nonzero"/><path fill="#41483c" d="M 29.832031 22.828125 L 31.585938 22.828125 L 31.585938 24.582031 L 29.832031 24.582031 Z M 29.832031 22.828125 " fill-opacity="1" fill-rule="nonzero"/><path fill="#41483c" d="M 32.464844 22.828125 L 34.214844 22.828125 L 34.214844 24.582031 L 32.464844 24.582031 Z M 32.464844 22.828125 " fill-opacity="1" fill-rule="nonzero"/><path fill="#41483c" d="M 35.09375 22.828125 L 36.847656 22.828125 L 36.847656 24.582031 L 35.09375 24.582031 Z M 35.09375 22.828125 " fill-opacity="1" fill-rule="nonzero"/><g clip-path="url(#6dc2495eba)"><path fill="#41483c" d="M 45.613281 24.683594 L 45.613281 6.953125 C 45.613281 5.554688 44.476562 4.421875 43.082031 4.421875 L 13.882812 4.421875 C 12.539062 3.800781 10.808594 3.894531 9.472656 4.699219 C 8.671875 5.1875 5.347656 8.570312 5.050781 8.949219 C 4.890625 9.15625 4.707031 9.316406 4.523438 9.679688 C 2.382812 13.917969 4.128906 21.746094 5.992188 26.089844 C 8.339844 31.582031 14.960938 38.203125 20.453125 40.550781 C 22.207031 41.304688 25.234375 42.273438 28.460938 42.730469 C 31.097656 43.105469 34.492188 43.21875 36.859375 42.019531 C 37.222656 41.839844 37.390625 41.652344 37.601562 41.488281 C 38.035156 41.144531 41.359375 37.871094 41.84375 37.070312 C 42.761719 35.558594 42.757812 33.535156 41.835938 32.144531 C 41.035156 30.941406 38.390625 29.078125 35.75 27.277344 C 35.71875 27.253906 35.6875 27.234375 35.65625 27.210938 L 43.082031 27.210938 C 43.953125 27.210938 44.722656 26.769531 45.179688 26.097656 C 45.195312 26.074219 45.214844 26.046875 45.226562 26.019531 C 45.472656 25.632812 45.613281 25.171875 45.613281 24.683594 Z M 35.417969 14.480469 L 43.859375 7.304688 L 43.859375 23.632812 Z M 18.171875 9.183594 C 17.378906 8.054688 16.597656 7 15.898438 6.175781 L 42.484375 6.175781 L 28.9375 17.6875 Z M 40.375 33.113281 C 40.914062 33.929688 40.902344 35.238281 40.34375 36.160156 C 40.015625 36.6875 36.886719 39.816406 36.519531 40.109375 C 36.289062 40.289062 36.210938 40.386719 36.070312 40.453125 C 32.507812 42.257812 25.054688 40.617188 21.140625 38.9375 C 16.089844 36.777344 9.765625 30.453125 7.605469 25.402344 C 5.878906 21.371094 4.265625 14.074219 6.085938 10.472656 C 6.15625 10.335938 6.246094 10.269531 6.433594 10.03125 C 6.730469 9.65625 9.855469 6.527344 10.382812 6.199219 C 11.296875 5.644531 12.609375 5.625 13.433594 6.171875 C 14.621094 6.960938 17.566406 11.386719 18.363281 12.574219 C 19.066406 13.617188 19.410156 15.140625 18.617188 16.207031 C 18.472656 16.34375 17.960938 16.792969 17.296875 17.371094 L 12.003906 9.765625 C 11.730469 9.371094 11.183594 9.269531 10.785156 9.546875 C 10.386719 9.824219 10.289062 10.371094 10.566406 10.769531 L 15.964844 18.527344 C 15.277344 19.121094 14.570312 19.730469 13.992188 20.230469 C 13.742188 20.441406 13.632812 20.773438 13.707031 21.09375 C 14.746094 25.542969 21.003906 31.796875 25.449219 32.835938 C 25.769531 32.910156 26.101562 32.800781 26.3125 32.550781 C 26.785156 32.003906 27.359375 31.339844 27.921875 30.6875 L 35.605469 35.847656 C 36.007812 36.117188 36.550781 36.007812 36.820312 35.609375 C 37.089844 35.207031 36.984375 34.664062 36.582031 34.390625 L 29.078125 29.351562 C 29.699219 28.636719 30.191406 28.078125 30.335938 27.925781 C 31.417969 27.121094 32.96875 27.484375 33.960938 28.175781 C 34.1875 28.332031 34.457031 28.515625 34.761719 28.722656 C 36.363281 29.816406 39.699219 32.09375 40.375 33.113281 Z M 25.347656 30.988281 C 23.613281 30.417969 21.554688 28.96875 19.753906 27.210938 L 28.621094 27.210938 C 28.117188 27.777344 27.171875 28.867188 25.347656 30.988281 Z M 18.128906 25.460938 C 16.929688 24.023438 15.988281 22.515625 15.558594 21.195312 C 19.800781 17.542969 19.910156 17.40625 19.976562 17.320312 C 20.808594 16.25 21.023438 14.792969 20.632812 13.363281 L 28.414062 19.511719 C 28.742188 19.769531 29.207031 19.761719 29.523438 19.492188 L 34.082031 15.617188 L 43.15625 25.457031 C 43.09375 25.460938 34.734375 25.457031 18.128906 25.460938 Z M 18.128906 25.460938 " fill-opacity="1" fill-rule="nonzero"/></g><path fill="#41483c" d="M 7.917969 33.347656 C 6.46875 33.347656 5.289062 34.527344 5.289062 35.976562 C 5.289062 37.429688 6.46875 38.609375 7.917969 38.609375 C 9.367188 38.609375 10.546875 37.429688 10.546875 35.976562 C 10.546875 34.527344 9.367188 33.347656 7.917969 33.347656 Z M 7.917969 36.855469 C 7.4375 36.855469 7.042969 36.460938 7.042969 35.976562 C 7.042969 35.496094 7.4375 35.101562 7.917969 35.101562 C 8.402344 35.101562 8.796875 35.496094 8.796875 35.976562 C 8.796875 36.460938 8.402344 36.855469 7.917969 36.855469 Z M 7.917969 36.855469 " fill-opacity="1" fill-rule="nonzero"/></svg>