<svg xmlns="http://www.w3.org/2000/svg" xmlns:xlink="http://www.w3.org/1999/xlink" width="64" zoomAndPan="magnify" viewBox="0 0 48 48" height="64" preserveAspectRatio="xMidYMid meet" version="1.0"><defs><clipPath id="75d72a74c5"><path d="M 0.488281 0 L 47.507812 0 L 47.507812 47.019531 L 0.488281 47.019531 Z M 0.488281 0 " clip-rule="nonzero"/></clipPath><clipPath id="a756e8e8b4"><path d="M 1.738281 4.703125 L 46 4.703125 L 46 42.90625 L 1.738281 42.90625 Z M 1.738281 4.703125 " clip-rule="nonzero"/></clipPath></defs><g clip-path="url(#75d72a74c5)"><path fill="#ffffff" d="M 0.488281 0 L 47.511719 0 L 47.511719 47.019531 L 0.488281 47.019531 Z M 0.488281 0 " fill-opacity="1" fill-rule="nonzero"/><path fill="#ffffff" d="M 0.488281 0 L 47.511719 0 L 47.511719 47.019531 L 0.488281 47.019531 Z M 0.488281 0 " fill-opacity="1" fill-rule="nonzero"/></g><g clip-path="url(#a756e8e8b4)"><path fill="#41483c" d="M 45.199219 12.761719 L 34.789062 5.195312 C 34.113281 4.707031 33.183594 4.710938 32.523438 5.207031 L 22.128906 12.761719 C 21.273438 13.378906 21.082031 14.578125 21.703125 15.433594 C 22.003906 15.847656 22.445312 16.117188 22.953125 16.199219 C 23.457031 16.28125 23.960938 16.160156 24.375 15.859375 L 24.679688 15.636719 L 24.679688 25.390625 C 24.679688 26.324219 25.4375 27.085938 26.371094 27.085938 L 40.953125 27.085938 C 41.886719 27.085938 42.644531 26.324219 42.644531 25.390625 L 42.644531 15.636719 L 42.949219 15.859375 C 43.28125 16.097656 43.667969 16.222656 44.070312 16.222656 C 44.171875 16.222656 44.273438 16.214844 44.375 16.199219 C 44.878906 16.117188 45.324219 15.847656 45.625 15.433594 C 46.242188 14.578125 46.050781 13.378906 45.199219 12.761719 Z M 36.261719 25.695312 L 31.0625 25.695312 L 31.0625 19.269531 C 31.0625 18.867188 31.390625 18.539062 31.792969 18.539062 L 35.535156 18.539062 C 35.9375 18.539062 36.261719 18.867188 36.261719 19.269531 Z M 41.257812 25.390625 C 41.257812 25.558594 41.121094 25.695312 40.953125 25.695312 L 37.652344 25.695312 L 37.652344 19.269531 C 37.652344 18.101562 36.703125 17.152344 35.535156 17.152344 L 31.792969 17.152344 C 30.625 17.152344 29.675781 18.101562 29.675781 19.269531 L 29.675781 25.695312 L 26.371094 25.695312 C 26.203125 25.695312 26.066406 25.558594 26.066406 25.390625 L 26.066406 14.628906 L 33.664062 9.109375 L 41.257812 14.628906 Z M 44.5 14.617188 C 44.417969 14.730469 44.296875 14.804688 44.15625 14.828125 C 44.019531 14.851562 43.878906 14.816406 43.765625 14.734375 L 34.070312 7.691406 C 33.949219 7.601562 33.804688 7.558594 33.664062 7.558594 C 33.519531 7.558594 33.378906 7.601562 33.253906 7.691406 L 23.5625 14.734375 C 23.445312 14.816406 23.308594 14.851562 23.167969 14.828125 C 23.03125 14.804688 22.910156 14.730469 22.824219 14.617188 C 22.65625 14.382812 22.707031 14.054688 22.941406 13.882812 L 33.34375 6.328125 C 33.347656 6.324219 33.351562 6.320312 33.355469 6.316406 C 33.53125 6.183594 33.785156 6.183594 33.972656 6.316406 L 44.382812 13.882812 C 44.617188 14.054688 44.671875 14.382812 44.5 14.617188 Z M 25.339844 28.742188 C 25.417969 28.417969 25.347656 28.082031 25.144531 27.820312 C 24.941406 27.558594 24.632812 27.410156 24.300781 27.410156 L 22.65625 27.410156 C 21.058594 26.105469 19.175781 25.214844 17.183594 24.800781 C 19.898438 23.75 21.832031 21.113281 21.832031 18.035156 C 21.832031 14.035156 18.578125 10.78125 14.582031 10.78125 C 10.582031 10.78125 7.332031 14.035156 7.332031 18.035156 C 7.332031 21.113281 9.261719 23.746094 11.972656 24.796875 C 9.550781 25.300781 7.320312 26.5 5.519531 28.300781 C 3.09375 30.726562 1.757812 33.945312 1.757812 37.355469 L 1.757812 38.394531 C 1.757812 39.296875 2.488281 40.027344 3.390625 40.027344 L 8.578125 40.027344 L 8.195312 41.539062 C 8.113281 41.863281 8.183594 42.199219 8.386719 42.460938 C 8.589844 42.722656 8.898438 42.871094 9.230469 42.871094 L 20.925781 42.871094 C 21.417969 42.871094 21.84375 42.539062 21.960938 42.066406 L 22.480469 40.027344 C 22.523438 40.027344 22.566406 40.027344 22.609375 40.027344 L 25.773438 40.027344 C 26.675781 40.027344 27.40625 39.296875 27.40625 38.394531 L 27.40625 37.355469 C 27.40625 34.679688 26.585938 32.121094 25.035156 29.945312 Z M 8.71875 18.035156 C 8.71875 14.800781 11.347656 12.171875 14.582031 12.171875 C 17.816406 12.171875 20.445312 14.800781 20.445312 18.035156 C 20.445312 21.265625 17.816406 23.898438 14.582031 23.898438 C 11.347656 23.898438 8.71875 21.265625 8.71875 18.035156 Z M 14.582031 25.917969 C 16.558594 25.917969 18.5 26.4375 20.207031 27.410156 L 12.605469 27.410156 C 12.117188 27.410156 11.691406 27.742188 11.570312 28.214844 L 10.605469 32.03125 L 8.835938 30.261719 C 8.566406 29.992188 8.128906 29.992188 7.855469 30.261719 C 7.585938 30.535156 7.585938 30.972656 7.855469 31.246094 L 10.207031 33.597656 L 10.132812 33.890625 L 3.679688 33.890625 C 5.152344 29.269531 9.484375 25.917969 14.582031 25.917969 Z M 3.390625 38.640625 C 3.257812 38.640625 3.144531 38.527344 3.144531 38.394531 L 3.144531 37.355469 C 3.144531 36.644531 3.210938 35.949219 3.332031 35.277344 L 9.78125 35.277344 L 8.929688 38.640625 Z M 20.679688 41.484375 L 9.640625 41.484375 L 12.855469 28.796875 L 23.890625 28.796875 L 22.601562 33.890625 C 20.914062 33.894531 19.539062 35.269531 19.539062 36.960938 C 19.539062 38.121094 20.1875 39.132812 21.140625 39.65625 Z M 26.019531 37.355469 L 26.019531 38.394531 C 26.019531 38.527344 25.90625 38.640625 25.773438 38.640625 L 22.609375 38.640625 C 21.683594 38.640625 20.925781 37.886719 20.925781 36.960938 C 20.925781 36.03125 21.683594 35.277344 22.609375 35.277344 L 25.832031 35.277344 C 25.957031 35.957031 26.019531 36.652344 26.019531 37.355469 Z M 25.480469 33.890625 L 24.035156 33.890625 L 24.566406 31.792969 C 24.941406 32.460938 25.25 33.164062 25.480469 33.890625 Z M 25.480469 33.890625 " fill-opacity="1" fill-rule="nonzero"/></g></svg>