<svg xmlns="http://www.w3.org/2000/svg" xmlns:xlink="http://www.w3.org/1999/xlink" width="64" zoomAndPan="magnify" viewBox="0 0 48 48" height="64" preserveAspectRatio="xMidYMid meet" version="1.0"><defs><clipPath id="8f1b79ace9"><path d="M 0.488281 0 L 47.507812 0 L 47.507812 47.019531 L 0.488281 47.019531 Z M 0.488281 0 " clip-rule="nonzero"/></clipPath><clipPath id="e0055cd517"><path d="M 26 11 L 44.621094 11 L 44.621094 22 L 26 22 Z M 26 11 " clip-rule="nonzero"/></clipPath><clipPath id="0259af798a"><path d="M 15 4.167969 L 17 4.167969 L 17 9 L 15 9 Z M 15 4.167969 " clip-rule="nonzero"/></clipPath><clipPath id="5fe36f03a8"><path d="M 3.476562 14 L 8 14 L 8 16 L 3.476562 16 Z M 3.476562 14 " clip-rule="nonzero"/></clipPath></defs><g clip-path="url(#8f1b79ace9)"><path fill="#ffffff" d="M 0.488281 0 L 47.511719 0 L 47.511719 47.019531 L 0.488281 47.019531 Z M 0.488281 0 " fill-opacity="1" fill-rule="nonzero"/><path fill="#ffffff" d="M 0.488281 0 L 47.511719 0 L 47.511719 47.019531 L 0.488281 47.019531 Z M 0.488281 0 " fill-opacity="1" fill-rule="nonzero"/></g><path fill="#41483c" d="M 29.710938 41.457031 L 31.09375 41.457031 L 31.09375 42.835938 L 29.710938 42.835938 Z M 29.710938 41.457031 " fill-opacity="1" fill-rule="nonzero"/><g clip-path="url(#e0055cd517)"><path fill="#41483c" d="M 43.519531 21.4375 L 35.578125 13.152344 L 27.640625 21.4375 L 26.644531 20.480469 L 34.582031 12.195312 C 35.109375 11.648438 36.050781 11.648438 36.578125 12.195312 L 44.515625 20.480469 Z M 43.519531 21.4375 " fill-opacity="1" fill-rule="nonzero"/></g><path fill="#41483c" d="M 41.449219 40.074219 L 12.453125 40.074219 L 12.453125 38.695312 L 41.449219 38.695312 L 41.449219 22.816406 L 42.828125 22.816406 L 42.828125 38.695312 C 42.828125 39.457031 42.210938 40.074219 41.449219 40.074219 Z M 41.449219 40.074219 " fill-opacity="1" fill-rule="nonzero"/><path fill="#41483c" d="M 6.300781 32.726562 L 5.335938 31.738281 C 6.195312 30.898438 7.488281 29.441406 7.671875 28.832031 C 8.246094 26.890625 8.648438 25.730469 9.121094 25.144531 C 10.074219 23.964844 11.007812 23.507812 12.453125 23.507812 L 12.453125 24.886719 C 11.417969 24.886719 10.890625 25.148438 10.199219 26.011719 C 9.804688 26.496094 9.277344 28.269531 8.992188 29.226562 C 8.644531 30.398438 6.6875 32.347656 6.300781 32.726562 Z M 6.300781 32.726562 " fill-opacity="1" fill-rule="nonzero"/><path fill="#41483c" d="M 15.90625 22.125 L 17.285156 22.125 L 17.285156 25.867188 L 15.90625 25.867188 Z M 15.90625 22.125 " fill-opacity="1" fill-rule="nonzero"/><path fill="#41483c" d="M 7.71875 40.257812 L 6.742188 39.28125 L 9.890625 36.132812 C 11.394531 34.632812 12.363281 34.558594 15.210938 34.550781 C 16.734375 34.546875 17.972656 33.308594 17.972656 31.789062 L 17.972656 29.027344 C 17.972656 27.507812 16.734375 26.265625 15.214844 26.265625 L 11.761719 26.265625 L 11.761719 20.605469 C 10.472656 19.703125 9.691406 18.203125 9.691406 16.601562 C 9.691406 14.546875 10.984375 12.707031 12.910156 12.023438 L 13.832031 11.699219 L 13.832031 15.914062 L 15.214844 15.914062 L 15.214844 11.714844 L 16.132812 12.039062 C 18.0625 12.722656 19.355469 14.554688 19.355469 16.601562 C 19.355469 18.214844 18.570312 19.71875 17.285156 20.617188 L 17.285156 22.816406 L 15.902344 22.816406 L 15.902344 19.84375 L 16.25 19.644531 C 17.296875 19.035156 17.976562 17.84375 17.976562 16.601562 C 17.976562 15.496094 17.445312 14.476562 16.59375 13.835938 L 16.59375 15.910156 C 16.59375 16.671875 15.976562 17.292969 15.214844 17.292969 L 13.832031 17.292969 C 13.070312 17.292969 12.453125 16.671875 12.453125 15.910156 L 12.453125 13.820312 C 11.601562 14.464844 11.070312 15.488281 11.070312 16.601562 C 11.070312 17.851562 11.734375 19.011719 12.796875 19.628906 L 13.144531 19.828125 L 13.144531 24.886719 L 15.214844 24.886719 C 17.5 24.886719 19.355469 26.742188 19.355469 29.027344 L 19.355469 31.789062 C 19.355469 34.070312 17.5 35.925781 15.214844 35.929688 C 12.335938 35.9375 11.929688 36.046875 10.867188 37.109375 Z M 7.71875 40.257812 " fill-opacity="1" fill-rule="nonzero"/><path fill="#41483c" d="M 22.117188 41.457031 L 28.332031 41.457031 L 28.332031 42.835938 L 22.117188 42.835938 Z M 22.117188 41.457031 " fill-opacity="1" fill-rule="nonzero"/><path fill="#41483c" d="M 40.066406 35.933594 L 38.6875 35.933594 L 38.6875 22.816406 L 33.164062 22.816406 L 33.164062 34.550781 L 37.304688 34.550781 L 37.304688 35.933594 L 33.164062 35.933594 C 32.402344 35.933594 31.785156 35.3125 31.785156 34.550781 L 31.785156 22.816406 C 31.785156 22.054688 32.402344 21.4375 33.164062 21.4375 L 38.6875 21.4375 C 39.449219 21.4375 40.066406 22.054688 40.066406 22.816406 Z M 40.066406 35.933594 " fill-opacity="1" fill-rule="nonzero"/><path fill="#41483c" d="M 32.472656 27.648438 L 39.375 27.648438 L 39.375 29.027344 L 32.472656 29.027344 Z M 32.472656 27.648438 " fill-opacity="1" fill-rule="nonzero"/><path fill="#41483c" d="M 30.402344 39.386719 L 29.019531 39.386719 L 29.019531 37.3125 L 20.738281 37.3125 L 20.738281 39.386719 L 19.355469 39.386719 L 19.355469 37.3125 C 19.355469 36.550781 19.976562 35.933594 20.738281 35.933594 L 29.019531 35.933594 C 29.78125 35.933594 30.402344 36.550781 30.402344 37.3125 Z M 30.402344 39.386719 " fill-opacity="1" fill-rule="nonzero"/><path fill="#41483c" d="M 29.019531 36.621094 L 27.640625 36.621094 L 27.640625 25.578125 L 22.117188 25.578125 L 22.117188 36.621094 L 20.738281 36.621094 L 20.738281 25.578125 C 20.738281 24.816406 21.355469 24.195312 22.117188 24.195312 L 27.640625 24.195312 C 28.402344 24.195312 29.019531 24.816406 29.019531 25.578125 Z M 29.019531 36.621094 " fill-opacity="1" fill-rule="nonzero"/><path fill="#41483c" d="M 30.773438 17.378906 C 28.894531 16.214844 25.515625 14.136719 24.003906 13.273438 L 23.878906 13.199219 L 23.84375 13.175781 C 23.828125 13.183594 23.816406 13.195312 23.804688 13.203125 L 23.691406 13.269531 C 22.832031 13.773438 21.171875 14.777344 18.898438 16.167969 L 18.175781 14.992188 C 20.492188 13.574219 22.113281 12.59375 22.996094 12.078125 L 23.070312 12.035156 C 23.234375 11.929688 23.488281 11.773438 23.84375 11.773438 C 24.203125 11.773438 24.453125 11.933594 24.609375 12.027344 L 24.683594 12.074219 C 26.144531 12.90625 29.195312 14.78125 31.5 16.207031 L 30.773438 17.382812 Z M 30.773438 17.378906 " fill-opacity="1" fill-rule="nonzero"/><path fill="#41483c" d="M 28.691406 19.546875 C 26.492188 18.195312 24.867188 17.21875 24 16.726562 L 23.84375 16.628906 C 23.828125 16.636719 23.816406 16.644531 23.804688 16.652344 L 23.691406 16.722656 C 23.132812 17.046875 22.316406 17.539062 21.414062 18.085938 L 20.699219 16.90625 C 21.609375 16.355469 22.433594 15.859375 22.996094 15.53125 L 23.066406 15.484375 C 23.234375 15.382812 23.488281 15.222656 23.84375 15.222656 C 24.203125 15.222656 24.453125 15.382812 24.609375 15.480469 L 24.683594 15.523438 C 25.578125 16.035156 27.167969 16.992188 29.414062 18.371094 Z M 28.691406 19.546875 " fill-opacity="1" fill-rule="nonzero"/><path fill="#41483c" d="M 22.808594 21.4375 L 21.425781 21.4375 L 21.425781 22.816406 L 22.808594 22.816406 Z M 22.808594 21.4375 " fill-opacity="1" fill-rule="nonzero"/><path fill="#41483c" d="M 25.570312 21.4375 L 24.1875 21.4375 L 24.1875 22.816406 L 25.570312 22.816406 Z M 25.570312 21.4375 " fill-opacity="1" fill-rule="nonzero"/><path fill="#41483c" d="M 20.046875 21.4375 L 18.664062 21.4375 L 18.664062 22.816406 L 20.046875 22.816406 Z M 20.046875 21.4375 " fill-opacity="1" fill-rule="nonzero"/><path fill="#41483c" d="M 24.878906 29.71875 L 23.5 29.71875 L 23.5 31.101562 L 24.878906 31.101562 Z M 24.878906 29.71875 " fill-opacity="1" fill-rule="nonzero"/><path fill="#41483c" d="M 6.097656 7.082031 L 7.074219 6.105469 L 10.546875 9.578125 L 9.570312 10.554688 Z M 6.097656 7.082031 " fill-opacity="1" fill-rule="nonzero"/><g clip-path="url(#0259af798a)"><path fill="#41483c" d="M 15.214844 4.175781 L 16.59375 4.175781 L 16.59375 8.316406 L 15.214844 8.316406 Z M 15.214844 4.175781 " fill-opacity="1" fill-rule="nonzero"/></g><g clip-path="url(#5fe36f03a8)"><path fill="#41483c" d="M 3.480469 14.53125 L 7.621094 14.53125 L 7.621094 15.914062 L 3.480469 15.914062 Z M 3.480469 14.53125 " fill-opacity="1" fill-rule="nonzero"/></g></svg>