<svg xmlns="http://www.w3.org/2000/svg" xmlns:xlink="http://www.w3.org/1999/xlink" width="64" zoomAndPan="magnify" viewBox="0 0 48 48" height="64" preserveAspectRatio="xMidYMid meet" version="1.0"><defs><clipPath id="8314efff5a"><path d="M 10.1875 9.699219 L 38 9.699219 L 38 37.617188 L 10.1875 37.617188 Z M 10.1875 9.699219 " clip-rule="nonzero"/></clipPath></defs><g clip-path="url(#8314efff5a)"><path fill="#ff5733" d="M 37.808594 23.507812 C 37.808594 31.132812 31.625 37.316406 23.996094 37.316406 C 16.371094 37.316406 10.1875 31.132812 10.1875 23.507812 C 10.1875 15.882812 16.371094 9.699219 23.996094 9.699219 C 31.625 9.699219 37.808594 15.882812 37.808594 23.507812 Z M 37.808594 23.507812 " fill-opacity="1" fill-rule="nonzero"/></g><path fill="#fefefe" d="M 27.929688 17 C 27.929688 19.171875 26.167969 20.933594 23.996094 20.933594 C 21.824219 20.933594 20.0625 19.171875 20.0625 17 C 20.0625 14.828125 21.824219 13.066406 23.996094 13.066406 C 26.167969 13.066406 27.929688 14.828125 27.929688 17 Z M 27.929688 17 " fill-opacity="1" fill-rule="nonzero"/><path fill="#fefefe" d="M 23.996094 22.277344 C 19.964844 22.277344 16.699219 25.546875 16.699219 29.578125 C 16.699219 30.632812 17.558594 31.492188 18.613281 31.492188 L 29.378906 31.492188 C 30.4375 31.492188 31.296875 30.632812 31.296875 29.578125 C 31.296875 25.546875 28.027344 22.277344 23.996094 22.277344 Z M 23.996094 22.277344 " fill-opacity="1" fill-rule="nonzero"/></svg>