<svg xmlns="http://www.w3.org/2000/svg" xmlns:xlink="http://www.w3.org/1999/xlink" width="64" zoomAndPan="magnify" viewBox="0 0 48 48" height="64" preserveAspectRatio="xMidYMid meet" version="1.0"><defs><clipPath id="7bc30b3490"><path d="M 0.488281 0 L 47.507812 0 L 47.507812 47.019531 L 0.488281 47.019531 Z M 0.488281 0 " clip-rule="nonzero"/></clipPath><clipPath id="f3bf31f728"><path d="M 15 4.703125 L 32 4.703125 L 32 24 L 15 24 Z M 15 4.703125 " clip-rule="nonzero"/></clipPath><clipPath id="201201a1fb"><path d="M 5.191406 19 L 19 19 L 19 42 L 5.191406 42 Z M 5.191406 19 " clip-rule="nonzero"/></clipPath><clipPath id="392215f263"><path d="M 29 20 L 42.660156 20 L 42.660156 42.171875 L 29 42.171875 Z M 29 20 " clip-rule="nonzero"/></clipPath></defs><g clip-path="url(#7bc30b3490)"><path fill="#ffffff" d="M 0.488281 0 L 47.511719 0 L 47.511719 47.019531 L 0.488281 47.019531 Z M 0.488281 0 " fill-opacity="1" fill-rule="nonzero"/><path fill="#ffffff" d="M 0.488281 0 L 47.511719 0 L 47.511719 47.019531 L 0.488281 47.019531 Z M 0.488281 0 " fill-opacity="1" fill-rule="nonzero"/></g><g clip-path="url(#f3bf31f728)"><path fill="#ff5733" d="M 18.601562 18.683594 C 16.960938 17.214844 15.925781 15.085938 15.925781 12.710938 C 15.925781 8.292969 19.511719 4.703125 23.933594 4.703125 C 28.351562 4.703125 31.9375 8.292969 31.9375 12.710938 C 31.9375 17.128906 28.351562 20.71875 23.933594 20.71875 C 23.25 20.71875 22.585938 20.632812 21.953125 20.472656 L 19.128906 22.960938 C 18.832031 23.222656 18.394531 23.246094 18.074219 23.019531 C 17.75 22.792969 17.625 22.371094 17.769531 22.003906 C 18.191406 20.949219 18.625 19.890625 18.601562 18.683594 Z M 18.601562 18.683594 " fill-opacity="1" fill-rule="evenodd"/></g><g clip-path="url(#201201a1fb)"><path fill="#062439" d="M 12.949219 31.121094 C 15.765625 31.121094 18.046875 33.40625 18.046875 36.21875 L 18.046875 40.957031 C 18.046875 41.429688 17.664062 41.8125 17.195312 41.8125 L 6.042969 41.8125 C 5.570312 41.8125 5.1875 41.429688 5.1875 40.957031 L 5.1875 36.21875 C 5.1875 33.40625 7.472656 31.121094 10.289062 31.121094 Z M 11.289062 19.929688 C 13.988281 19.929688 16.183594 22.125 16.183594 24.824219 C 16.183594 27.527344 13.988281 29.71875 11.289062 29.71875 C 8.585938 29.71875 6.394531 27.527344 6.394531 24.824219 C 6.394531 22.125 8.585938 19.929688 11.289062 19.929688 Z M 11.289062 19.929688 " fill-opacity="1" fill-rule="evenodd"/></g><g clip-path="url(#392215f263)"><path fill="#062439" d="M 37.703125 31.574219 C 40.519531 31.574219 42.800781 33.855469 42.800781 36.671875 L 42.800781 41.410156 C 42.800781 41.882812 42.421875 42.261719 41.949219 42.261719 L 30.796875 42.261719 C 30.324219 42.261719 29.945312 41.882812 29.945312 41.410156 L 29.945312 36.671875 C 29.945312 33.855469 32.226562 31.574219 35.042969 31.574219 Z M 36.042969 20.382812 C 38.746094 20.382812 40.9375 22.574219 40.9375 25.277344 C 40.9375 27.980469 38.746094 30.171875 36.042969 30.171875 C 33.339844 30.171875 31.148438 27.980469 31.148438 25.277344 C 31.148438 22.574219 33.339844 20.382812 36.042969 20.382812 Z M 36.042969 20.382812 " fill-opacity="1" fill-rule="evenodd"/></g><path fill="#ffd700" d="M 21.710938 9.75 C 21.878906 9.011719 22.445312 8.414062 23.1875 8.21875 C 23.65625 8.082031 24.140625 8.035156 24.632812 8.1875 C 25.320312 8.339844 25.828125 8.914062 26.042969 9.414062 C 26.273438 9.90625 26.3125 10.53125 26 11.320312 C 25.871094 11.652344 25.660156 11.945312 25.386719 12.171875 C 24.859375 12.601562 24.496094 13.066406 24.199219 13.53125 L 24.199219 14.078125 C 24.199219 14.550781 23.816406 14.933594 23.347656 14.933594 C 22.875 14.933594 22.496094 14.550781 22.496094 14.078125 L 22.496094 13.289062 C 22.496094 13.132812 22.539062 12.980469 22.617188 12.847656 C 23.027344 12.164062 23.53125 11.484375 24.304688 10.851562 C 24.355469 10.8125 24.390625 10.761719 24.414062 10.703125 C 24.414062 10.703125 24.414062 10.699219 24.414062 10.699219 C 24.507812 10.460938 24.566406 10.28125 24.496094 10.132812 C 24.492188 10.125 24.488281 10.117188 24.484375 10.109375 C 24.449219 10.015625 24.394531 9.875 24.269531 9.855469 C 24.230469 9.847656 24.191406 9.835938 24.152344 9.824219 C 23.980469 9.765625 23.816406 9.8125 23.65625 9.855469 C 23.648438 9.859375 23.640625 9.859375 23.632812 9.863281 C 23.484375 9.902344 23.375 10.03125 23.363281 10.183594 C 23.34375 10.449219 23.199219 10.679688 22.996094 10.820312 C 23.003906 10.804688 23.003906 10.796875 23.007812 10.796875 C 23.269531 10.59375 23.34375 10.386719 23.34375 10.113281 C 23.34375 10.394531 23.210938 10.640625 23.007812 10.796875 C 22.863281 10.902344 22.6875 10.96875 22.492188 10.96875 C 22.480469 10.96875 22.464844 10.96875 22.453125 10.96875 C 22 10.945312 21.640625 10.574219 21.640625 10.117188 C 21.640625 9.980469 21.660156 9.859375 21.710938 9.75 Z M 22.996094 10.820312 C 22.96875 10.871094 22.867188 10.996094 22.453125 10.964844 C 22.652344 10.980469 22.84375 10.925781 22.996094 10.820312 Z M 22.996094 10.820312 " fill-opacity="1" fill-rule="evenodd"/><path fill="#ffd700" d="M 24.328125 16.523438 C 24.328125 16.769531 24.242188 16.976562 24.070312 17.152344 C 23.894531 17.324219 23.6875 17.410156 23.441406 17.410156 C 23.195312 17.410156 22.984375 17.324219 22.8125 17.152344 C 22.640625 16.976562 22.550781 16.769531 22.550781 16.523438 C 22.550781 16.277344 22.640625 16.066406 22.8125 15.894531 C 22.984375 15.722656 23.195312 15.632812 23.441406 15.632812 C 23.6875 15.632812 23.894531 15.722656 24.070312 15.894531 C 24.242188 16.066406 24.328125 16.277344 24.328125 16.523438 Z M 24.328125 16.523438 " fill-opacity="1" fill-rule="nonzero"/></svg>